<svg xmlns="http://www.w3.org/2000/svg" xmlns:xlink="http://www.w3.org/1999/xlink" width="500" zoomAndPan="magnify" viewBox="0 0 375 374.999991" height="500" preserveAspectRatio="xMidYMid meet" version="1.0"><defs><g/><clipPath id="192da9bb52"><rect x="0" width="99" y="0" height="173"/></clipPath></defs><g transform="matrix(1, 0, 0, 1, 110, 101)"><g clip-path="url(#192da9bb52)"><g fill="#d9d9d9" fill-opacity="1"><g transform="translate(1.457351, 129.636967)"><g><path d="M 2.5 -20.546875 L 8.765625 -20.546875 L 8.765625 -76.9375 L 2.5 -76.9375 L 2.5 -97.5 L 60.03125 -97.5 C 70.46875 -97.5 78.609375 -95.367188 84.453125 -91.109375 C 90.304688 -86.847656 93.234375 -80.75 93.234375 -72.8125 C 93.234375 -67.875 92.0625 -63.710938 89.71875 -60.328125 C 87.382812 -56.953125 84.648438 -54.40625 81.515625 -52.6875 C 78.378906 -50.976562 75.351562 -49.832031 72.4375 -49.25 L 72.4375 -48 C 78.363281 -47.414062 83.707031 -45.535156 88.46875 -42.359375 C 93.226562 -39.179688 95.609375 -33.5 95.609375 -25.3125 C 95.609375 -16.539062 92.304688 -10.128906 85.703125 -6.078125 C 79.109375 -2.023438 70.550781 0 60.03125 0 L 2.5 0 Z M 50.625 -56.390625 C 53.050781 -56.390625 54.867188 -57.035156 56.078125 -58.328125 C 57.285156 -59.628906 57.890625 -61.65625 57.890625 -64.40625 L 57.890625 -68.921875 C 57.890625 -71.679688 57.285156 -73.707031 56.078125 -75 C 54.867188 -76.289062 53.050781 -76.9375 50.625 -76.9375 L 43.859375 -76.9375 L 43.859375 -56.390625 Z M 51.5 -20.546875 C 53.925781 -20.546875 55.742188 -21.191406 56.953125 -22.484375 C 58.160156 -23.785156 58.765625 -25.816406 58.765625 -28.578125 L 58.765625 -34.078125 C 58.765625 -36.835938 58.160156 -38.863281 56.953125 -40.15625 C 55.742188 -41.457031 53.925781 -42.109375 51.5 -42.109375 L 43.859375 -42.109375 L 43.859375 -20.546875 Z M 51.5 -20.546875 "/></g></g></g></g></g><g fill="#000000" fill-opacity="1"><g transform="translate(178.873059, 231.027729)"><g><path d="M 57.269531 -102.195312 L 100.441406 -102.195312 L 100.441406 -72.246094 L 90.730469 -72.246094 L 90.730469 -76.945312 L 94.835938 -74.65625 L 70.648438 -31.296875 L 66.542969 -33.585938 L 71.242188 -33.585938 L 71.242188 -20.550781 L 66.542969 -20.550781 L 66.542969 -25.25 L 77.507812 -25.25 L 77.507812 4.699219 L 20.488281 4.699219 L 20.488281 -25.25 L 31.453125 -25.25 L 31.453125 -20.550781 L 26.753906 -20.550781 L 26.753906 -33.585938 L 31.453125 -33.585938 L 27.382812 -31.242188 L 2.441406 -74.601562 L 6.515625 -76.945312 L 6.515625 -72.246094 L -3.195312 -72.246094 L -3.195312 -102.195312 L 54.703125 -102.195312 L 54.703125 -72.246094 L 45.617188 -72.246094 L 45.617188 -76.945312 L 50.007812 -78.617188 L 57.402344 -59.191406 L 53.007812 -57.519531 L 53.007812 -62.21875 L 54.261719 -62.21875 L 54.261719 -57.519531 L 49.871094 -59.191406 L 57.265625 -78.617188 L 61.65625 -76.945312 L 61.65625 -72.246094 L 52.570312 -72.246094 L 52.570312 -102.195312 Z M 57.269531 -92.796875 L 57.269531 -97.496094 L 61.96875 -97.496094 L 61.96875 -76.945312 L 57.269531 -76.945312 L 57.269531 -81.644531 L 68.472656 -81.644531 L 57.503906 -52.820312 L 49.769531 -52.820312 L 38.796875 -81.644531 L 50 -81.644531 L 50 -76.945312 L 45.300781 -76.945312 L 45.300781 -97.496094 L 50 -97.496094 L 50 -92.796875 L 1.503906 -92.796875 L 1.503906 -97.496094 L 6.203125 -97.496094 L 6.203125 -76.945312 L 1.503906 -76.945312 L 1.503906 -81.644531 L 9.234375 -81.644531 L 36.152344 -34.839844 L 36.152344 -15.851562 L 25.1875 -15.851562 L 25.1875 -20.550781 L 29.886719 -20.550781 L 29.886719 0 L 25.1875 0 L 25.1875 -4.699219 L 72.808594 -4.699219 L 72.808594 0 L 68.109375 0 L 68.109375 -20.550781 L 72.808594 -20.550781 L 72.808594 -15.851562 L 61.84375 -15.851562 L 61.84375 -34.808594 L 87.96875 -81.644531 L 95.742188 -81.644531 L 95.742188 -76.945312 L 91.042969 -76.945312 L 91.042969 -97.496094 L 95.742188 -97.496094 L 95.742188 -92.796875 Z M 57.269531 -92.796875 "/></g></g></g><g fill="#d9d9d9" fill-opacity="1"><g transform="translate(178.873059, 231.027729)"><g><path d="M 57.265625 -97.5 L 95.734375 -97.5 L 95.734375 -76.9375 L 90.71875 -76.9375 L 66.546875 -33.578125 L 66.546875 -20.546875 L 72.8125 -20.546875 L 72.8125 0 L 25.1875 0 L 25.1875 -20.546875 L 31.453125 -20.546875 L 31.453125 -33.578125 L 6.515625 -76.9375 L 1.5 -76.9375 L 1.5 -97.5 L 50 -97.5 L 50 -76.9375 L 45.609375 -76.9375 L 53 -57.515625 L 54.265625 -57.515625 L 61.65625 -76.9375 L 57.265625 -76.9375 Z M 57.265625 -97.5 "/></g></g></g><g fill="#d9d9d9" fill-opacity="1"><g transform="translate(146.614902, 258.843132)"><g><path d="M 1.296875 0 L 1.296875 -10 L 5.5625 -10 C 6.175781 -10 6.695312 -9.898438 7.125 -9.703125 C 7.550781 -9.503906 7.875 -9.226562 8.09375 -8.875 C 8.3125 -8.519531 8.421875 -8.097656 8.421875 -7.609375 C 8.421875 -7.171875 8.3125 -6.78125 8.09375 -6.4375 C 7.882812 -6.101562 7.578125 -5.832031 7.171875 -5.625 L 7.171875 -5.484375 C 7.804688 -5.316406 8.289062 -5.015625 8.625 -4.578125 C 8.96875 -4.148438 9.140625 -3.625 9.140625 -3 C 9.140625 -2.039062 8.851562 -1.300781 8.28125 -0.78125 C 7.707031 -0.257812 6.851562 0 5.71875 0 Z M 5.15625 -6.015625 C 6.070312 -6.015625 6.53125 -6.425781 6.53125 -7.25 C 6.53125 -7.675781 6.414062 -7.992188 6.1875 -8.203125 C 5.96875 -8.410156 5.625 -8.515625 5.15625 -8.515625 L 3.28125 -8.515625 L 3.28125 -6.015625 Z M 5.515625 -1.5625 C 6.609375 -1.5625 7.15625 -2.054688 7.15625 -3.046875 C 7.15625 -4.046875 6.609375 -4.546875 5.515625 -4.546875 L 3.28125 -4.546875 L 3.28125 -1.5625 Z M 5.515625 -1.5625 "/></g></g></g><g fill="#d9d9d9" fill-opacity="1"><g transform="translate(157.924834, 258.843132)"><g><path d="M 3.28125 -4.390625 L 3.28125 -1.65625 L 8.046875 -1.65625 L 8.046875 0 L 1.296875 0 L 1.296875 -10 L 7.9375 -10 L 7.9375 -8.34375 L 3.28125 -8.34375 L 3.28125 -6 L 7.34375 -6 L 7.34375 -4.390625 Z M 3.28125 -4.390625 "/></g></g></g><g fill="#d9d9d9" fill-opacity="1"><g transform="translate(168.052809, 258.843132)"><g><path d="M 3.28125 -4.390625 L 3.28125 -1.65625 L 8.046875 -1.65625 L 8.046875 0 L 1.296875 0 L 1.296875 -10 L 7.9375 -10 L 7.9375 -8.34375 L 3.28125 -8.34375 L 3.28125 -6 L 7.34375 -6 L 7.34375 -4.390625 Z M 3.28125 -4.390625 "/></g></g></g><g fill="#d9d9d9" fill-opacity="1"><g transform="translate(178.180784, 258.843132)"><g><path d="M 1.296875 0 L 1.296875 -10 L 5.3125 -10 C 6.34375 -10 7.117188 -9.757812 7.640625 -9.28125 C 8.171875 -8.800781 8.4375 -8.144531 8.4375 -7.3125 C 8.4375 -6.707031 8.28125 -6.207031 7.96875 -5.8125 C 7.664062 -5.425781 7.210938 -5.128906 6.609375 -4.921875 L 6.609375 -4.78125 C 6.921875 -4.644531 7.171875 -4.441406 7.359375 -4.171875 C 7.554688 -3.910156 7.742188 -3.515625 7.921875 -2.984375 L 8.921875 0 L 6.890625 0 L 5.90625 -2.984375 C 5.800781 -3.285156 5.6875 -3.519531 5.5625 -3.6875 C 5.4375 -3.851562 5.273438 -3.972656 5.078125 -4.046875 C 4.890625 -4.117188 4.640625 -4.15625 4.328125 -4.15625 L 3.28125 -4.15625 L 3.28125 0 Z M 5.078125 -5.734375 C 6.035156 -5.734375 6.515625 -6.175781 6.515625 -7.0625 C 6.515625 -7.96875 6.035156 -8.421875 5.078125 -8.421875 L 3.28125 -8.421875 L 3.28125 -5.734375 Z M 5.078125 -5.734375 "/></g></g></g><g fill="#d9d9d9" fill-opacity="1"><g transform="translate(189.060292, 258.843132)"><g/></g></g><g fill="#d9d9d9" fill-opacity="1"><g transform="translate(193.900204, 258.843132)"><g><path d="M 5.46875 0 L 3.5 0 L 3.5 -3.921875 L 0.046875 -10 L 2.171875 -10 L 4.453125 -6.0625 L 4.625 -6.0625 L 6.859375 -10 L 8.921875 -10 L 5.46875 -3.921875 Z M 5.46875 0 "/></g></g></g><g fill="#d9d9d9" fill-opacity="1"><g transform="translate(204.410778, 258.843132)"><g><path d="M 3.28125 0 L 1.296875 0 L 1.296875 -10 L 3.28125 -10 Z M 3.28125 0 "/></g></g></g><g fill="#d9d9d9" fill-opacity="1"><g transform="translate(210.528297, 258.843132)"><g><path d="M 7.75 0 L 0.40625 0 L 0.40625 -1.75 L 5.421875 -8.203125 L 5.375 -8.34375 L 0.609375 -8.34375 L 0.609375 -10 L 7.703125 -10 L 7.703125 -8.25 L 2.6875 -1.796875 L 2.734375 -1.65625 L 7.75 -1.65625 Z M 7.75 0 "/></g></g></g><g fill="#d9d9d9" fill-opacity="1"><g transform="translate(220.225848, 258.843132)"><g><path d="M 7.75 0 L 0.40625 0 L 0.40625 -1.75 L 5.421875 -8.203125 L 5.375 -8.34375 L 0.609375 -8.34375 L 0.609375 -10 L 7.703125 -10 L 7.703125 -8.25 L 2.6875 -1.796875 L 2.734375 -1.65625 L 7.75 -1.65625 Z M 7.75 0 "/></g></g></g></svg>